<?xml version="1.0" encoding="utf-8"?>
<!-- Generator: Adobe Illustrator 15.0.0, SVG Export Plug-In  -->
<!DOCTYPE svg PUBLIC "-//W3C//DTD SVG 1.1//EN" "http://www.w3.org/Graphics/SVG/1.1/DTD/svg11.dtd" [
	<!ENTITY ns_flows "http://ns.adobe.com/Flows/1.0/">
]>
<svg version="1.1"
	 xmlns="http://www.w3.org/2000/svg" xmlns:xlink="http://www.w3.org/1999/xlink" xmlns:a="http://ns.adobe.com/AdobeSVGViewerExtensions/3.0/"
	 x="0px" y="0px" width="30px" height="30px" viewBox="-0.24 -3.448 30 30" enable-background="new -0.24 -3.448 30 30"
	 xml:space="preserve">
<defs>
</defs>
<path fill="#2B2B2B" d="M28.944,14.154c-0.362-0.202-0.823-0.156-1.269,0.124l-8.171,5.144c-0.227,0.144-0.296,0.44-0.152,0.671
	c0.145,0.227,0.445,0.297,0.672,0.152l8.17-5.144c0.174-0.111,0.269-0.103,0.28-0.095c0.017,0.004,0.074,0.082,0.074,0.284
	c0,0.552-0.407,1.285-0.873,1.581l-7.924,4.987c-0.42,0.264-0.803,0.338-1.054,0.202c-0.247-0.14-0.396-0.507-0.396-1.005
	c0-1.26,0.906-2.891,1.969-3.566l9.022-5.677c0.141-0.09,0.227-0.245,0.227-0.412c0-0.167-0.086-0.323-0.227-0.412L11.962,0.076
	c-0.159-0.101-0.36-0.101-0.519,0l-9.128,5.75C1.015,6.641,0,8.481,0,10.016v0.259c0,1.532,1.015,3.373,2.314,4.193l13.579,8.549
	c0.227,0.141,0.527,0.074,0.671-0.156c0.143-0.223,0.074-0.527-0.152-0.667l-13.58-8.552c-1.007-0.634-1.857-2.177-1.857-3.367
	v-0.259c0-1.19,0.851-2.733,1.857-3.369l8.871-5.584l16.418,10.339l-8.365,5.266c-1.358,0.856-2.425,2.783-2.425,4.39
	c0,0.877,0.32,1.532,0.897,1.854c0.23,0.132,0.485,0.193,0.758,0.193c0.403,0,0.844-0.145,1.285-0.424l7.923-4.983
	c0.742-0.47,1.326-1.524,1.326-2.405C29.52,14.772,29.31,14.356,28.944,14.154z"/>
<path fill="#2B2B2B" d="M22.948,11.887c0.156,0,0.316-0.08,0.411-0.227c0.141-0.229,0.074-0.529-0.156-0.671L11.962,3.908
	c-0.227-0.142-0.527-0.074-0.671,0.152c-0.144,0.229-0.074,0.529,0.152,0.671l11.241,7.082
	C22.766,11.862,22.857,11.887,22.948,11.887z"/>
<path fill="#2B2B2B" d="M21,13.179c0.161,0,0.321-0.081,0.416-0.229c0.14-0.227,0.074-0.527-0.156-0.67l-4.751-2.979
	c-0.227-0.142-0.527-0.074-0.669,0.155c-0.145,0.226-0.074,0.527,0.152,0.671l4.748,2.978C20.823,13.153,20.913,13.179,21,13.179z"
	/>
<path fill="#2B2B2B" d="M14.527,10.582c-0.229-0.142-0.529-0.072-0.671,0.155c-0.142,0.229-0.072,0.529,0.154,0.671l4.786,2.986
	c0.082,0.053,0.173,0.074,0.26,0.074c0.16,0,0.316-0.079,0.411-0.227c0.145-0.227,0.074-0.527-0.152-0.672L14.527,10.582z"/>
<path fill="#2B2B2B" d="M9.421,5.183L5.376,7.73C5.234,7.818,5.15,7.975,5.15,8.142c0,0.169,0.087,0.323,0.229,0.412l4.824,2.999
	c0.079,0.049,0.167,0.074,0.255,0.074c0.093,0,0.186-0.024,0.266-0.078l1.073-0.694c0.227-0.146,0.291-0.447,0.145-0.673
	c-0.145-0.225-0.447-0.291-0.671-0.144l-0.815,0.527l-3.9-2.425L9.68,6.169l3.845,2.409l-0.449,0.291
	c-0.224,0.146-0.29,0.447-0.144,0.673c0.146,0.224,0.447,0.29,0.673,0.144l1.089-0.704c0.14-0.091,0.225-0.248,0.223-0.412
	c0-0.167-0.087-0.321-0.229-0.41L9.94,5.183C9.781,5.082,9.58,5.082,9.421,5.183z"/>
<path fill="#2B2B2B" d="M17.524,15.53c0.144-0.227,0.069-0.527-0.157-0.668l-4.822-3c-0.229-0.142-0.529-0.072-0.671,0.157
	c-0.142,0.229-0.072,0.527,0.156,0.669l4.822,2.998c0.083,0.049,0.169,0.074,0.256,0.074C17.272,15.761,17.429,15.678,17.524,15.53z
	"/>
<path fill="#2B2B2B" d="M3.474,9.305C3.332,9.534,3.402,9.832,3.628,9.974l11.904,7.401c0.08,0.05,0.169,0.074,0.257,0.074
	c0.163,0,0.321-0.083,0.414-0.23c0.143-0.227,0.072-0.527-0.156-0.668L4.143,9.148C3.915,9.006,3.614,9.077,3.474,9.305z"/>
</svg>
