<?xml version="1.0" encoding="utf-8"?>
<!-- Generator: Adobe Illustrator 15.0.0, SVG Export Plug-In  -->
<!DOCTYPE svg PUBLIC "-//W3C//DTD SVG 1.1//EN" "http://www.w3.org/Graphics/SVG/1.1/DTD/svg11.dtd" [
	<!ENTITY ns_flows "http://ns.adobe.com/Flows/1.0/">
]>
<svg version="1.1"
	 xmlns="http://www.w3.org/2000/svg" xmlns:xlink="http://www.w3.org/1999/xlink" xmlns:a="http://ns.adobe.com/AdobeSVGViewerExtensions/3.0/"
	 x="0px" y="0px" width="30px" height="30px" viewBox="0 0 30 30" enable-background="new 0 0 30 30" xml:space="preserve">
<defs>
</defs>
<path fill="#FFFFFF" d="M29.371,0H0v0.629v28.742V30h15.899V19.975h-3.222c-0.279,0-0.504-0.225-0.504-0.504v-4.063
	c0-0.279,0.226-0.505,0.504-0.505H15.9v-2.805c0-3.696,2.327-6.083,5.928-6.083l3.206,0.005c0.278,0,0.504,0.226,0.504,0.504v3.774
	c0,0.278-0.226,0.504-0.504,0.504l-2.16,0.001c-1.488,0-1.761,0.581-1.761,1.723v2.377h3.77c0.134,0,0.262,0.053,0.356,0.148
	s0.148,0.223,0.148,0.357l-0.002,4.063c0,0.279-0.226,0.504-0.504,0.504h-3.769V30H30v-0.629V0H29.371z"/>
</svg>
