<?xml version="1.0" encoding="utf-8"?>
<!-- Generator: Adobe Illustrator 15.0.0, SVG Export Plug-In  -->
<!DOCTYPE svg PUBLIC "-//W3C//DTD SVG 1.1//EN" "http://www.w3.org/Graphics/SVG/1.1/DTD/svg11.dtd" [
	<!ENTITY ns_flows "http://ns.adobe.com/Flows/1.0/">
]>
<svg version="1.1"
	 xmlns="http://www.w3.org/2000/svg" xmlns:xlink="http://www.w3.org/1999/xlink" xmlns:a="http://ns.adobe.com/AdobeSVGViewerExtensions/3.0/"
	 x="0px" y="0px" width="30px" height="30px" viewBox="0 0 30 30" enable-background="new 0 0 30 30" xml:space="preserve">
<defs>
</defs>
<path fill="#FFFFFF" d="M3.887,14.268c0.417,0.54,0.924,0.979,1.523,1.318c0.599,0.339,1.23,0.508,1.895,0.508
	c1.263,0,2.178-0.394,2.744-1.182s0.849-1.833,0.849-3.135c0-0.794-0.104-1.628-0.312-2.5c-0.208-0.872-0.515-1.719-0.918-2.539
	c-0.404-0.82-0.951-1.498-1.641-2.031c-0.69-0.534-1.465-0.801-2.324-0.801c-1.21,0-2.152,0.449-2.822,1.348
	S1.875,7.227,1.875,8.477c0,0.612,0.075,1.256,0.225,1.934c0.149,0.677,0.381,1.354,0.693,2.031
	C3.106,13.119,3.47,13.728,3.887,14.268z"/>
<path fill="#FFFFFF" d="M6.29,18.848c0-0.325,0.136-0.885,0.41-1.68c-0.495,0.065-0.951,0.098-1.367,0.098
	c-2.214,0-3.991-0.769-5.333-2.305v8.457c1.966-1.016,4.473-1.569,7.52-1.66C6.699,20.69,6.29,19.72,6.29,18.848z"/>
<path fill="#FFFFFF" d="M6.588,30h6.459c0.13-0.43,0.196-0.892,0.196-1.387c0-0.273-0.029-0.537-0.088-0.791
	s-0.121-0.488-0.186-0.703c-0.065-0.215-0.179-0.439-0.342-0.674c-0.163-0.234-0.3-0.433-0.41-0.596
	c-0.111-0.162-0.284-0.354-0.518-0.575c-0.234-0.222-0.414-0.388-0.537-0.499c-0.124-0.109-0.332-0.276-0.625-0.498
	c-0.293-0.221-0.495-0.371-0.605-0.449c-0.111-0.078-0.326-0.228-0.645-0.449c-0.319-0.222-0.518-0.357-0.596-0.41
	c-0.221-0.026-0.541-0.039-0.957-0.039c-0.716,0-1.413,0.046-2.09,0.137c-1.811,0.243-3.665,0.846-4.897,2.267
	C0.444,25.683,0.219,26.107,0,26.516V30h5.625H6.588L6.588,30z"/>
<path fill="#FFFFFF" d="M23.413,0H6.588H5.625H0v5.859C0.99,4.623,2.178,3.753,3.565,3.252C4.952,2.751,6.543,2.5,8.34,2.5h8.535
	l-2.637,1.25h-2.636c0.064,0.13,0.133,0.241,0.205,0.333c0.071,0.091,0.136,0.153,0.195,0.185c0.058,0.033,0.14,0.082,0.244,0.146
	c0.104,0.065,0.195,0.137,0.273,0.215c0.638,0.6,1.129,1.371,1.475,2.315s0.518,1.892,0.518,2.842c0,0.951-0.15,1.804-0.449,2.559
	c-0.3,0.755-0.661,1.361-1.084,1.816c-0.423,0.456-0.85,0.876-1.279,1.26c-0.43,0.384-0.795,0.785-1.094,1.202
	c-0.3,0.417-0.449,0.859-0.449,1.328c0,0.391,0.143,0.777,0.43,1.161c0.286,0.385,0.647,0.739,1.084,1.065
	c0.436,0.325,0.905,0.712,1.406,1.161c0.501,0.45,0.97,0.912,1.406,1.387c0.436,0.476,0.797,1.081,1.084,1.816
	c0.286,0.736,0.429,1.533,0.429,2.393c0,1.094-0.254,2.116-0.762,3.066h8.178h0.963H30v-5.625v-0.637V10h-5v5h-2.5v-5H17.5V7.5h5v-5
	H25v5h5V6.262V5.625V0h-5.625H23.413z"/>
</svg>
