<?xml version="1.0" encoding="utf-8"?>
<!-- Generator: Adobe Illustrator 15.0.0, SVG Export Plug-In  -->
<!DOCTYPE svg PUBLIC "-//W3C//DTD SVG 1.1//EN" "http://www.w3.org/Graphics/SVG/1.1/DTD/svg11.dtd" [
	<!ENTITY ns_flows "http://ns.adobe.com/Flows/1.0/">
]>
<svg version="1.1"
	 xmlns="http://www.w3.org/2000/svg" xmlns:xlink="http://www.w3.org/1999/xlink" xmlns:a="http://ns.adobe.com/AdobeSVGViewerExtensions/3.0/"
	 x="0px" y="0px" width="115px" height="115px" viewBox="-5.098 -0.646 115 115" enable-background="new -5.098 -0.646 115 115"
	 xml:space="preserve">
<defs>
</defs>
<path fill="#2B2B2B" d="M56.317,77.096c0.471,0,0.938-0.18,1.298-0.531c1.2-1.193,29.426-29.319,29.426-45.844
	C87.038,13.783,73.254,0,56.317,0C39.375,0,25.592,13.783,25.592,30.724c0,16.525,28.228,44.647,29.428,45.844
	C55.378,76.916,55.846,77.096,56.317,77.096z M56.317,16.482c7.859,0,14.243,6.386,14.243,14.242
	c0,7.853-6.384,14.239-14.243,14.239c-7.856,0-14.239-6.386-14.239-14.239C42.078,22.868,48.461,16.482,56.317,16.482z"/>
<path fill="#2B2B2B" d="M3.472,102.038l23.313-2.99l14.552,14.134c0.069,0.069,0.155,0.095,0.227,0.148
	c0.072,0.051,0.111,0.115,0.19,0.155c0.025,0.014,0.058,0.006,0.079,0.021c0.251,0.118,0.514,0.205,0.787,0.205
	c0.298,0,0.596-0.079,0.874-0.226l26.39-14.208l20.101,14.096c0.424,0.302,0.945,0.395,1.459,0.287
	c0.504-0.107,0.938-0.423,1.189-0.87l14.675-25.48c0.254-0.445,0.313-0.978,0.161-1.458c-0.151-0.489-0.496-0.892-0.956-1.115
	L83.53,73.603c-0.003,0-0.003,0-0.007,0c-0.004-0.003-0.004-0.007-0.008-0.007c-0.233-0.108-0.478-0.162-0.722-0.172
	c-0.075,0-0.154,0.028-0.227,0.035c-0.169,0.019-0.338,0.039-0.5,0.093c-0.018,0.008-0.036,0.005-0.054,0.012L56.342,84.374
	l-15.346-6.965c-0.054-0.025-0.108-0.015-0.162-0.036c-0.162-0.061-0.324-0.083-0.489-0.089c-0.101-0.008-0.201-0.022-0.302-0.012
	c-0.205,0.021-0.392,0.086-0.579,0.173c-0.047,0.021-0.093,0.014-0.137,0.047l-0.061,0.028c0,0-0.004,0.007-0.007,0.007L2.29,98.469
	l-0.638,0.37c-1.266,0.766-1.847,1.28-1.594,2.266c0.313,1.219,1.609,1.141,2.375,1.063 M53.766,87.245l-11.609,21.597
	L29.852,96.888L40.86,81.392L53.766,87.245z M33.945,84.77l-7.544,10.616l-14.469,1.852L33.945,84.77z M69.14,95.485l-21.995,11.85
	l10.483-19.508l21.391-9.006l-7.935,16.787h-0.008C70.499,95.198,69.751,95.152,69.14,95.485z M90.456,109.197L74.136,97.758
	l9.458-20.028l19.544,9.455L90.456,109.197z"/>
</svg>
