<?xml version="1.0" encoding="utf-8"?>
<!-- Generator: Adobe Illustrator 15.0.0, SVG Export Plug-In  -->
<!DOCTYPE svg PUBLIC "-//W3C//DTD SVG 1.1//EN" "http://www.w3.org/Graphics/SVG/1.1/DTD/svg11.dtd" [
	<!ENTITY ns_flows "http://ns.adobe.com/Flows/1.0/">
]>
<svg version="1.1"
	 xmlns="http://www.w3.org/2000/svg" xmlns:xlink="http://www.w3.org/1999/xlink" xmlns:a="http://ns.adobe.com/AdobeSVGViewerExtensions/3.0/"
	 x="0px" y="0px" width="145px" height="73px" viewBox="-0.396 -0.757 145 73" enable-background="new -0.396 -0.757 145 73"
	 xml:space="preserve">
<defs>
</defs>
<polygon fill="#FFFFFF" points="0.066,71.486 0,13.729 53.314,42.959 62.434,38.716 70.751,43.292 53.414,52.179 8.318,27.626 
	8.318,71.486 "/>
<polygon fill="#FFFFFF" points="12.193,17.37 12.627,2.706 91.363,42.323 121.26,27.425 120.792,36.479 90.461,51.677 
	20.344,15.466 20.344,22.181 "/>
<polygon fill="#FFFFFF" points="144.209,71.486 144.209,15.867 135.69,20.01 135.69,71.486 "/>
<polygon fill="#FFFFFF" points="11.992,71.486 11.992,32.102 20.411,37.279 20.411,71.486 "/>
<path fill="#FFFFFF" d="M39.953,3.607l-4.51,8.886l-2.004-1.035l3.04-5.98l-3.841,5.546L31.2,10.322l2.139-6.28l-2.974,5.846
	l-2.038-1.035L32.87,0l2.974,1.503c-0.201,0.602-0.401,1.27-0.702,2.038L34.34,5.946l2.64-3.842L39.953,3.607z"/>
<path fill="#FFFFFF" d="M43.493,11.959c-0.434,0.901-0.769,1.503-1.002,1.87c-0.234,0.334-0.535,0.602-0.936,0.802
	c-0.368,0.2-0.768,0.268-1.236,0.268c-0.468-0.033-0.936-0.167-1.437-0.435c-0.467-0.233-0.869-0.534-1.169-0.902
	c-0.301-0.334-0.468-0.734-0.535-1.136c-0.101-0.434-0.067-0.835,0.1-1.235c0.134-0.4,0.435-1.036,0.902-1.938l0.769-1.536
	c0.468-0.869,0.802-1.504,1.036-1.838c0.233-0.367,0.535-0.635,0.902-0.835c0.367-0.167,0.801-0.268,1.269-0.233
	c0.435,0.033,0.936,0.166,1.437,0.434c0.467,0.233,0.868,0.535,1.135,0.869c0.301,0.333,0.501,0.734,0.568,1.169
	s0.034,0.835-0.1,1.202c-0.133,0.401-0.434,1.035-0.902,1.971L43.493,11.959z M42.691,7.884c0.201-0.435,0.334-0.702,0.334-0.836
	s-0.067-0.233-0.201-0.3c-0.101-0.067-0.234-0.067-0.334,0c-0.1,0.033-0.301,0.3-0.535,0.768l-2.104,4.143
	c-0.268,0.501-0.401,0.835-0.401,0.969c-0.033,0.134,0.034,0.268,0.2,0.334c0.134,0.066,0.268,0.066,0.401-0.066
	c0.1-0.101,0.3-0.436,0.568-0.936L42.691,7.884z"/>
<path fill="#FFFFFF" d="M47.001,7.215l1.736,0.869c1.103,0.567,1.838,1.002,2.172,1.302c0.333,0.302,0.568,0.636,0.635,0.97
	c0.1,0.334,0.1,0.668,0,0.969c-0.101,0.334-0.368,0.901-0.802,1.736l-1.569,3.107c-0.401,0.802-0.702,1.303-0.936,1.536
	c-0.2,0.234-0.434,0.368-0.701,0.435c-0.268,0.033-0.534,0.033-0.835-0.033c-0.334-0.101-0.735-0.268-1.303-0.568l-2.906-1.47
	L47.001,7.215z M48.538,9.921l-2.973,5.813c0.334,0.167,0.568,0.2,0.735,0.101c0.133-0.101,0.368-0.435,0.668-1.003l1.737-3.44
	c0.2-0.401,0.334-0.668,0.367-0.802c0.034-0.134,0-0.233-0.067-0.334C48.972,10.154,48.804,10.021,48.538,9.921z"/>
<path fill="#FFFFFF" d="M58.459,13.027l-3.041,5.946c-0.334,0.668-0.601,1.136-0.768,1.369c-0.201,0.234-0.468,0.468-0.835,0.635
	c-0.367,0.168-0.734,0.268-1.169,0.234c-0.434-0.033-0.901-0.167-1.37-0.435c-0.535-0.267-0.936-0.602-1.269-0.969
	c-0.301-0.367-0.501-0.768-0.568-1.136c-0.033-0.4,0-0.734,0.101-1.068c0.134-0.335,0.468-1.003,0.969-2.005l2.672-5.244
	l2.305,1.169l-3.407,6.647c-0.201,0.4-0.3,0.635-0.3,0.769c0,0.133,0.033,0.233,0.167,0.301c0.134,0.066,0.268,0.066,0.368-0.034
	c0.1-0.1,0.267-0.367,0.501-0.801l3.34-6.548L58.459,13.027z"/>
<polygon fill="#FFFFFF" points="61.632,14.664 58.024,21.746 59.428,22.481 58.525,24.252 54.818,22.348 59.327,13.495 "/>
<path fill="#FFFFFF" d="M85.583,12.326l4.51,8.853l-2.004,1.035l-3.04-5.979l2.238,6.381l-1.437,0.734l-3.808-5.411l2.973,5.846
	l-2.038,1.002l-4.477-8.853l2.974-1.503c0.367,0.468,0.768,1.068,1.236,1.737l1.47,2.07l-1.57-4.409L85.583,12.326z"/>
<polygon fill="#FFFFFF" points="86.519,11.858 90.36,9.888 91.263,11.691 89.726,12.459 90.594,14.13 92.03,13.396 92.865,15.099 
	91.429,15.834 92.432,17.771 94.135,16.902 95.037,18.706 91.028,20.711 "/>
<path fill="#FFFFFF" d="M91.195,9.486l1.704-0.868c1.136-0.568,1.903-0.901,2.338-1.002c0.468-0.101,0.835-0.067,1.17,0.066
	c0.3,0.101,0.567,0.301,0.768,0.568c0.201,0.267,0.501,0.802,0.936,1.637l1.57,3.106c0.4,0.802,0.635,1.37,0.701,1.67
	c0.067,0.301,0.033,0.568-0.066,0.835c-0.101,0.234-0.302,0.469-0.535,0.669s-0.635,0.434-1.202,0.701l-2.907,1.47L91.195,9.486z
	 M94.269,9.821l2.939,5.845c0.334-0.167,0.501-0.333,0.534-0.501c0-0.166-0.134-0.567-0.434-1.169l-1.771-3.44
	c-0.2-0.401-0.334-0.635-0.435-0.734c-0.066-0.101-0.167-0.168-0.301-0.168C94.702,9.653,94.502,9.721,94.269,9.821z"/>
<polygon fill="#FFFFFF" points="99.681,5.178 104.189,14.03 101.885,15.199 97.376,6.347 "/>
<path fill="#FFFFFF" d="M104.591,2.672l5.813,8.218l-2.339,1.17l-0.936-1.504l-0.835,0.401l0.668,1.67l-2.371,1.202l-3.307-9.453
	L104.591,2.672z M106.261,8.986c-0.601-0.937-1.37-2.105-2.238-3.542c0.636,1.838,1.103,3.141,1.471,3.941L106.261,8.986z"/>
<polygon fill="#FFFFFF" points="73.825,31.968 132.35,1.569 132.45,71.486 123.933,71.386 123.865,15.299 82.443,36.077 "/>
</svg>
