<?xml version="1.0" encoding="utf-8"?>
<!-- Generator: Adobe Illustrator 15.0.0, SVG Export Plug-In  -->
<!DOCTYPE svg PUBLIC "-//W3C//DTD SVG 1.1//EN" "http://www.w3.org/Graphics/SVG/1.1/DTD/svg11.dtd" [
	<!ENTITY ns_flows "http://ns.adobe.com/Flows/1.0/">
]>
<svg version="1.1"
	 xmlns="http://www.w3.org/2000/svg" xmlns:xlink="http://www.w3.org/1999/xlink" xmlns:a="http://ns.adobe.com/AdobeSVGViewerExtensions/3.0/"
	 x="0px" y="0px" width="115px" height="115px" viewBox="-3.724 -0.645 115 115" enable-background="new -3.724 -0.645 115 115"
	 xml:space="preserve">
<defs>
</defs>
<path fill="#FFFFFF" d="M56.317,77.096c0.471,0,0.938-0.18,1.298-0.531c1.199-1.192,29.426-29.318,29.426-45.843
	C87.038,13.783,73.253,0,56.317,0C39.375,0,25.592,13.783,25.592,30.724c0,16.525,28.228,44.647,29.428,45.844
	C55.377,76.916,55.846,77.096,56.317,77.096z M56.317,16.482c7.858,0,14.243,6.386,14.243,14.242
	c0,7.853-6.385,14.239-14.243,14.239c-7.856,0-14.239-6.386-14.239-14.239C42.078,22.868,48.461,16.482,56.317,16.482z"/>
<path fill="#FFFFFF" d="M3.472,102.038l23.313-2.99l14.552,14.134c0.069,0.069,0.155,0.096,0.227,0.148
	c0.072,0.051,0.111,0.115,0.19,0.154c0.025,0.015,0.058,0.007,0.079,0.021c0.251,0.118,0.514,0.205,0.787,0.205
	c0.298,0,0.596-0.079,0.874-0.227l26.389-14.207l20.101,14.096c0.425,0.302,0.945,0.395,1.459,0.287
	c0.504-0.107,0.938-0.424,1.189-0.87l14.676-25.479c0.254-0.445,0.313-0.979,0.16-1.459c-0.15-0.488-0.496-0.892-0.955-1.115
	L83.529,73.604c-0.002,0-0.002,0-0.006,0c-0.004-0.004-0.004-0.008-0.008-0.008c-0.234-0.107-0.479-0.162-0.723-0.172
	c-0.075,0-0.154,0.028-0.227,0.035c-0.17,0.02-0.338,0.039-0.5,0.093c-0.019,0.009-0.037,0.005-0.055,0.013l-25.67,10.81
	l-15.345-6.965c-0.054-0.025-0.108-0.015-0.162-0.036c-0.162-0.061-0.324-0.083-0.489-0.089c-0.101-0.009-0.201-0.022-0.302-0.013
	c-0.205,0.021-0.392,0.086-0.579,0.174c-0.047,0.021-0.093,0.014-0.137,0.047l-0.061,0.027c0,0-0.004,0.008-0.007,0.008L2.29,98.469
	l-0.638,0.37c-1.266,0.767-1.847,1.28-1.594,2.267c0.313,1.219,1.609,1.141,2.375,1.063 M53.766,87.245l-11.609,21.597
	L29.852,96.889L40.86,81.393L53.766,87.245z M33.945,84.77l-7.544,10.616l-14.469,1.853L33.945,84.77z M69.14,95.484l-21.995,11.851
	l10.482-19.508l21.392-9.007l-7.936,16.787h-0.008C70.499,95.198,69.75,95.152,69.14,95.484z M90.456,109.197L74.136,97.758
	l9.457-20.027l19.545,9.455L90.456,109.197z"/>
</svg>
